<mxfile host="app.diagrams.net" modified="2022-05-02T17:46:10.734Z" agent="5.0 (Macintosh)" etag="ZkqKbgzyn6ip5omQR0ll" version="17.5.0" type="github">
  <diagram id="OxzUz0Yb9F-I4cFqiS7J" name="Page-1">
    <mxGraphModel dx="1666" dy="1006" grid="1" gridSize="10" guides="1" tooltips="1" connect="1" arrows="1" fold="1" page="1" pageScale="1" pageWidth="1169" pageHeight="827" background="#ffffff" math="0" shadow="1">
      <root>
        <mxCell id="0" />
        <mxCell id="1" parent="0" />
        <mxCell id="zEhG4q7j8TwIvnxM43pW-66" value="" style="rounded=0;whiteSpace=wrap;html=1;shadow=0;strokeColor=#000000;strokeWidth=1;" vertex="1" parent="1">
          <mxGeometry width="1169" height="500" as="geometry" />
        </mxCell>
        <mxCell id="zEhG4q7j8TwIvnxM43pW-37" value="" style="edgeStyle=orthogonalEdgeStyle;rounded=0;orthogonalLoop=1;jettySize=auto;html=1;dashed=1;" edge="1" parent="1" source="zEhG4q7j8TwIvnxM43pW-1" target="zEhG4q7j8TwIvnxM43pW-9">
          <mxGeometry relative="1" as="geometry" />
        </mxCell>
        <mxCell id="zEhG4q7j8TwIvnxM43pW-1" value="&lt;div&gt;Farmer&lt;/div&gt;" style="rounded=1;whiteSpace=wrap;html=1;fillColor=#dae8fc;strokeColor=#000000;gradientColor=none;strokeWidth=1;" vertex="1" parent="1">
          <mxGeometry x="40" y="40" width="120" height="40" as="geometry" />
        </mxCell>
        <mxCell id="zEhG4q7j8TwIvnxM43pW-40" value="" style="edgeStyle=orthogonalEdgeStyle;rounded=0;orthogonalLoop=1;jettySize=auto;html=1;dashed=1;" edge="1" parent="1" source="zEhG4q7j8TwIvnxM43pW-2" target="zEhG4q7j8TwIvnxM43pW-10">
          <mxGeometry relative="1" as="geometry" />
        </mxCell>
        <mxCell id="zEhG4q7j8TwIvnxM43pW-2" value="&lt;div&gt;Farmer&lt;/div&gt;" style="rounded=1;whiteSpace=wrap;html=1;fillColor=#dae8fc;strokeColor=#000000;strokeWidth=1;" vertex="1" parent="1">
          <mxGeometry x="180" y="40" width="120" height="40" as="geometry" />
        </mxCell>
        <mxCell id="zEhG4q7j8TwIvnxM43pW-43" value="" style="edgeStyle=orthogonalEdgeStyle;rounded=0;orthogonalLoop=1;jettySize=auto;html=1;dashed=1;" edge="1" parent="1" source="zEhG4q7j8TwIvnxM43pW-3" target="zEhG4q7j8TwIvnxM43pW-11">
          <mxGeometry relative="1" as="geometry" />
        </mxCell>
        <mxCell id="zEhG4q7j8TwIvnxM43pW-3" value="&lt;div&gt;Farmer&lt;/div&gt;" style="rounded=1;whiteSpace=wrap;html=1;fillColor=#dae8fc;strokeColor=#000000;strokeWidth=1;" vertex="1" parent="1">
          <mxGeometry x="320" y="40" width="120" height="40" as="geometry" />
        </mxCell>
        <mxCell id="zEhG4q7j8TwIvnxM43pW-47" style="edgeStyle=orthogonalEdgeStyle;rounded=0;orthogonalLoop=1;jettySize=auto;html=1;entryX=0.5;entryY=0;entryDx=0;entryDy=0;dashed=1;" edge="1" parent="1" source="zEhG4q7j8TwIvnxM43pW-4" target="zEhG4q7j8TwIvnxM43pW-12">
          <mxGeometry relative="1" as="geometry" />
        </mxCell>
        <mxCell id="zEhG4q7j8TwIvnxM43pW-4" value="&lt;div&gt;Farmer&lt;/div&gt;" style="rounded=1;whiteSpace=wrap;html=1;fillColor=#dae8fc;strokeColor=#000000;strokeWidth=1;" vertex="1" parent="1">
          <mxGeometry x="460" y="40" width="120" height="40" as="geometry" />
        </mxCell>
        <mxCell id="zEhG4q7j8TwIvnxM43pW-51" value="" style="edgeStyle=orthogonalEdgeStyle;rounded=0;orthogonalLoop=1;jettySize=auto;html=1;dashed=1;" edge="1" parent="1" source="zEhG4q7j8TwIvnxM43pW-5" target="zEhG4q7j8TwIvnxM43pW-13">
          <mxGeometry relative="1" as="geometry" />
        </mxCell>
        <mxCell id="zEhG4q7j8TwIvnxM43pW-5" value="Distributor" style="rounded=1;whiteSpace=wrap;html=1;fillColor=#d5e8d4;strokeColor=#000000;strokeWidth=1;" vertex="1" parent="1">
          <mxGeometry x="600" y="40" width="120" height="40" as="geometry" />
        </mxCell>
        <mxCell id="zEhG4q7j8TwIvnxM43pW-54" value="" style="edgeStyle=orthogonalEdgeStyle;rounded=0;orthogonalLoop=1;jettySize=auto;html=1;dashed=1;" edge="1" parent="1" source="zEhG4q7j8TwIvnxM43pW-6" target="zEhG4q7j8TwIvnxM43pW-14">
          <mxGeometry relative="1" as="geometry" />
        </mxCell>
        <mxCell id="zEhG4q7j8TwIvnxM43pW-6" value="&lt;div&gt;Distributor&lt;/div&gt;" style="rounded=1;whiteSpace=wrap;html=1;fillColor=#d5e8d4;strokeColor=#000000;strokeWidth=1;" vertex="1" parent="1">
          <mxGeometry x="740" y="40" width="120" height="40" as="geometry" />
        </mxCell>
        <mxCell id="zEhG4q7j8TwIvnxM43pW-57" value="" style="edgeStyle=orthogonalEdgeStyle;rounded=0;orthogonalLoop=1;jettySize=auto;html=1;dashed=1;" edge="1" parent="1" source="zEhG4q7j8TwIvnxM43pW-7" target="zEhG4q7j8TwIvnxM43pW-15">
          <mxGeometry relative="1" as="geometry" />
        </mxCell>
        <mxCell id="zEhG4q7j8TwIvnxM43pW-7" value="Retailer" style="rounded=1;whiteSpace=wrap;html=1;fillColor=#ffe6cc;strokeColor=#000000;strokeWidth=1;" vertex="1" parent="1">
          <mxGeometry x="880" y="40" width="120" height="40" as="geometry" />
        </mxCell>
        <mxCell id="zEhG4q7j8TwIvnxM43pW-60" value="" style="edgeStyle=orthogonalEdgeStyle;rounded=0;orthogonalLoop=1;jettySize=auto;html=1;dashed=1;" edge="1" parent="1" source="zEhG4q7j8TwIvnxM43pW-8" target="zEhG4q7j8TwIvnxM43pW-16">
          <mxGeometry relative="1" as="geometry" />
        </mxCell>
        <mxCell id="zEhG4q7j8TwIvnxM43pW-8" value="Consumer" style="rounded=1;whiteSpace=wrap;html=1;fillColor=#f8cecc;strokeColor=#000000;strokeWidth=1;" vertex="1" parent="1">
          <mxGeometry x="1020" y="40" width="120" height="40" as="geometry" />
        </mxCell>
        <mxCell id="zEhG4q7j8TwIvnxM43pW-38" value="" style="edgeStyle=orthogonalEdgeStyle;rounded=0;orthogonalLoop=1;jettySize=auto;html=1;dashed=1;" edge="1" parent="1" source="zEhG4q7j8TwIvnxM43pW-9" target="zEhG4q7j8TwIvnxM43pW-19">
          <mxGeometry relative="1" as="geometry" />
        </mxCell>
        <mxCell id="zEhG4q7j8TwIvnxM43pW-9" value="onlyFarmer" style="rounded=1;whiteSpace=wrap;html=1;fillColor=#ffff88;strokeColor=#000000;strokeWidth=1;" vertex="1" parent="1">
          <mxGeometry x="40" y="160" width="120" height="60" as="geometry" />
        </mxCell>
        <mxCell id="zEhG4q7j8TwIvnxM43pW-41" value="" style="edgeStyle=orthogonalEdgeStyle;rounded=0;orthogonalLoop=1;jettySize=auto;html=1;dashed=1;" edge="1" parent="1" source="zEhG4q7j8TwIvnxM43pW-10" target="zEhG4q7j8TwIvnxM43pW-20">
          <mxGeometry relative="1" as="geometry" />
        </mxCell>
        <mxCell id="zEhG4q7j8TwIvnxM43pW-10" value="onlyFarmer, Harvested" style="rounded=1;whiteSpace=wrap;html=1;fillColor=#ffff88;strokeColor=#000000;strokeWidth=1;" vertex="1" parent="1">
          <mxGeometry x="180" y="160" width="120" height="60" as="geometry" />
        </mxCell>
        <mxCell id="zEhG4q7j8TwIvnxM43pW-44" value="" style="edgeStyle=orthogonalEdgeStyle;rounded=0;orthogonalLoop=1;jettySize=auto;html=1;dashed=1;" edge="1" parent="1" source="zEhG4q7j8TwIvnxM43pW-11" target="zEhG4q7j8TwIvnxM43pW-21">
          <mxGeometry relative="1" as="geometry" />
        </mxCell>
        <mxCell id="zEhG4q7j8TwIvnxM43pW-11" value="onlyFarmer, Processed" style="rounded=1;whiteSpace=wrap;html=1;fillColor=#ffff88;strokeColor=#000000;strokeWidth=1;" vertex="1" parent="1">
          <mxGeometry x="320" y="160" width="120" height="60" as="geometry" />
        </mxCell>
        <mxCell id="zEhG4q7j8TwIvnxM43pW-49" style="edgeStyle=orthogonalEdgeStyle;rounded=0;orthogonalLoop=1;jettySize=auto;html=1;entryX=0.5;entryY=0;entryDx=0;entryDy=0;dashed=1;" edge="1" parent="1" source="zEhG4q7j8TwIvnxM43pW-12" target="zEhG4q7j8TwIvnxM43pW-22">
          <mxGeometry relative="1" as="geometry" />
        </mxCell>
        <mxCell id="zEhG4q7j8TwIvnxM43pW-12" value="&lt;div align=&quot;center&quot;&gt;onlyFarmer,&lt;br&gt;Packaged&lt;br&gt;&lt;/div&gt;" style="rounded=1;whiteSpace=wrap;html=1;fillColor=#ffff88;strokeColor=#000000;align=center;strokeWidth=1;" vertex="1" parent="1">
          <mxGeometry x="460" y="160" width="120" height="60" as="geometry" />
        </mxCell>
        <mxCell id="zEhG4q7j8TwIvnxM43pW-52" value="" style="edgeStyle=orthogonalEdgeStyle;rounded=0;orthogonalLoop=1;jettySize=auto;html=1;dashed=1;" edge="1" parent="1" source="zEhG4q7j8TwIvnxM43pW-13" target="zEhG4q7j8TwIvnxM43pW-23">
          <mxGeometry relative="1" as="geometry" />
        </mxCell>
        <mxCell id="zEhG4q7j8TwIvnxM43pW-13" value="&lt;div align=&quot;center&quot;&gt;onlyDistributor,&lt;br&gt;For Sale,&lt;br&gt;paidEnough&lt;/div&gt;" style="rounded=1;whiteSpace=wrap;html=1;fillColor=#ffff88;strokeColor=#000000;align=center;strokeWidth=1;" vertex="1" parent="1">
          <mxGeometry x="600" y="160" width="120" height="60" as="geometry" />
        </mxCell>
        <mxCell id="zEhG4q7j8TwIvnxM43pW-55" value="" style="edgeStyle=orthogonalEdgeStyle;rounded=0;orthogonalLoop=1;jettySize=auto;html=1;dashed=1;" edge="1" parent="1" source="zEhG4q7j8TwIvnxM43pW-14" target="zEhG4q7j8TwIvnxM43pW-24">
          <mxGeometry relative="1" as="geometry" />
        </mxCell>
        <mxCell id="zEhG4q7j8TwIvnxM43pW-14" value="&lt;div align=&quot;center&quot;&gt;onlyDistributor,&lt;br&gt;Sold&lt;br&gt;&lt;/div&gt;" style="rounded=1;whiteSpace=wrap;html=1;fillColor=#ffff88;strokeColor=#000000;align=center;strokeWidth=1;" vertex="1" parent="1">
          <mxGeometry x="740" y="160" width="120" height="60" as="geometry" />
        </mxCell>
        <mxCell id="zEhG4q7j8TwIvnxM43pW-58" value="" style="edgeStyle=orthogonalEdgeStyle;rounded=0;orthogonalLoop=1;jettySize=auto;html=1;dashed=1;" edge="1" parent="1" source="zEhG4q7j8TwIvnxM43pW-15" target="zEhG4q7j8TwIvnxM43pW-25">
          <mxGeometry relative="1" as="geometry" />
        </mxCell>
        <mxCell id="zEhG4q7j8TwIvnxM43pW-15" value="&lt;div align=&quot;center&quot;&gt;onlyRetailer,&lt;br&gt;Shipped&lt;br&gt;&lt;/div&gt;" style="rounded=1;whiteSpace=wrap;html=1;fillColor=#ffff88;strokeColor=#000000;align=center;strokeWidth=1;" vertex="1" parent="1">
          <mxGeometry x="880" y="160" width="120" height="60" as="geometry" />
        </mxCell>
        <mxCell id="zEhG4q7j8TwIvnxM43pW-61" value="" style="edgeStyle=orthogonalEdgeStyle;rounded=0;orthogonalLoop=1;jettySize=auto;html=1;dashed=1;" edge="1" parent="1" source="zEhG4q7j8TwIvnxM43pW-16" target="zEhG4q7j8TwIvnxM43pW-26">
          <mxGeometry relative="1" as="geometry" />
        </mxCell>
        <mxCell id="zEhG4q7j8TwIvnxM43pW-16" value="&lt;div align=&quot;center&quot;&gt;onlyCustomer,&lt;br&gt;Received&lt;br&gt;&lt;/div&gt;" style="rounded=1;whiteSpace=wrap;html=1;fillColor=#ffff88;strokeColor=#000000;align=center;strokeWidth=1;" vertex="1" parent="1">
          <mxGeometry x="1020" y="160" width="120" height="60" as="geometry" />
        </mxCell>
        <mxCell id="zEhG4q7j8TwIvnxM43pW-17" value="&lt;div&gt;&lt;b&gt;Actors&lt;/b&gt;&lt;/div&gt;" style="text;html=1;strokeColor=none;fillColor=none;align=center;verticalAlign=middle;whiteSpace=wrap;rounded=0;" vertex="1" parent="1">
          <mxGeometry x="552" y="10" width="65" height="30" as="geometry" />
        </mxCell>
        <mxCell id="zEhG4q7j8TwIvnxM43pW-18" value="&lt;b&gt;Modifiers&lt;/b&gt;" style="text;html=1;strokeColor=none;fillColor=none;align=center;verticalAlign=middle;whiteSpace=wrap;rounded=0;shadow=0;" vertex="1" parent="1">
          <mxGeometry x="552" y="130" width="65" height="30" as="geometry" />
        </mxCell>
        <mxCell id="zEhG4q7j8TwIvnxM43pW-39" value="" style="edgeStyle=orthogonalEdgeStyle;rounded=0;orthogonalLoop=1;jettySize=auto;html=1;dashed=1;" edge="1" parent="1" source="zEhG4q7j8TwIvnxM43pW-19" target="zEhG4q7j8TwIvnxM43pW-28">
          <mxGeometry relative="1" as="geometry" />
        </mxCell>
        <mxCell id="zEhG4q7j8TwIvnxM43pW-19" value="harvestItem()" style="rounded=1;whiteSpace=wrap;html=1;fillColor=#f0a30a;strokeColor=#000000;fontColor=#000000;strokeWidth=1;" vertex="1" parent="1">
          <mxGeometry x="40" y="300" width="120" height="40" as="geometry" />
        </mxCell>
        <mxCell id="zEhG4q7j8TwIvnxM43pW-42" value="" style="edgeStyle=orthogonalEdgeStyle;rounded=0;orthogonalLoop=1;jettySize=auto;html=1;dashed=1;" edge="1" parent="1" source="zEhG4q7j8TwIvnxM43pW-20" target="zEhG4q7j8TwIvnxM43pW-29">
          <mxGeometry relative="1" as="geometry" />
        </mxCell>
        <mxCell id="zEhG4q7j8TwIvnxM43pW-20" value="processItem()" style="rounded=1;whiteSpace=wrap;html=1;fillColor=#f0a30a;strokeColor=#000000;fontColor=#000000;strokeWidth=1;" vertex="1" parent="1">
          <mxGeometry x="180" y="300" width="120" height="40" as="geometry" />
        </mxCell>
        <mxCell id="zEhG4q7j8TwIvnxM43pW-45" value="" style="edgeStyle=orthogonalEdgeStyle;rounded=0;orthogonalLoop=1;jettySize=auto;html=1;dashed=1;" edge="1" parent="1" source="zEhG4q7j8TwIvnxM43pW-21" target="zEhG4q7j8TwIvnxM43pW-30">
          <mxGeometry relative="1" as="geometry" />
        </mxCell>
        <mxCell id="zEhG4q7j8TwIvnxM43pW-21" value="packageItem()" style="rounded=1;whiteSpace=wrap;html=1;fillColor=#f0a30a;strokeColor=#000000;fontColor=#000000;strokeWidth=1;" vertex="1" parent="1">
          <mxGeometry x="320" y="300" width="120" height="40" as="geometry" />
        </mxCell>
        <mxCell id="zEhG4q7j8TwIvnxM43pW-50" style="edgeStyle=orthogonalEdgeStyle;rounded=0;orthogonalLoop=1;jettySize=auto;html=1;entryX=0.5;entryY=0;entryDx=0;entryDy=0;dashed=1;" edge="1" parent="1" source="zEhG4q7j8TwIvnxM43pW-22" target="zEhG4q7j8TwIvnxM43pW-31">
          <mxGeometry relative="1" as="geometry" />
        </mxCell>
        <mxCell id="zEhG4q7j8TwIvnxM43pW-22" value="sellItem()" style="rounded=1;whiteSpace=wrap;html=1;fillColor=#f0a30a;strokeColor=#000000;fontColor=#000000;strokeWidth=1;" vertex="1" parent="1">
          <mxGeometry x="460" y="300" width="120" height="40" as="geometry" />
        </mxCell>
        <mxCell id="zEhG4q7j8TwIvnxM43pW-53" value="" style="edgeStyle=orthogonalEdgeStyle;rounded=0;orthogonalLoop=1;jettySize=auto;html=1;dashed=1;" edge="1" parent="1" source="zEhG4q7j8TwIvnxM43pW-23" target="zEhG4q7j8TwIvnxM43pW-32">
          <mxGeometry relative="1" as="geometry" />
        </mxCell>
        <mxCell id="zEhG4q7j8TwIvnxM43pW-23" value="buyItem()" style="rounded=1;whiteSpace=wrap;html=1;fillColor=#f0a30a;strokeColor=#000000;fontColor=#000000;strokeWidth=1;" vertex="1" parent="1">
          <mxGeometry x="600" y="300" width="120" height="40" as="geometry" />
        </mxCell>
        <mxCell id="zEhG4q7j8TwIvnxM43pW-56" value="" style="edgeStyle=orthogonalEdgeStyle;rounded=0;orthogonalLoop=1;jettySize=auto;html=1;dashed=1;" edge="1" parent="1" source="zEhG4q7j8TwIvnxM43pW-24" target="zEhG4q7j8TwIvnxM43pW-33">
          <mxGeometry relative="1" as="geometry" />
        </mxCell>
        <mxCell id="zEhG4q7j8TwIvnxM43pW-24" value="shipItem()" style="rounded=1;whiteSpace=wrap;html=1;fillColor=#f0a30a;strokeColor=#000000;fontColor=#000000;strokeWidth=1;" vertex="1" parent="1">
          <mxGeometry x="740" y="300" width="120" height="40" as="geometry" />
        </mxCell>
        <mxCell id="zEhG4q7j8TwIvnxM43pW-59" value="" style="edgeStyle=orthogonalEdgeStyle;rounded=0;orthogonalLoop=1;jettySize=auto;html=1;dashed=1;" edge="1" parent="1" source="zEhG4q7j8TwIvnxM43pW-25" target="zEhG4q7j8TwIvnxM43pW-34">
          <mxGeometry relative="1" as="geometry" />
        </mxCell>
        <mxCell id="zEhG4q7j8TwIvnxM43pW-25" value="receiveItem()" style="rounded=1;whiteSpace=wrap;html=1;fillColor=#f0a30a;strokeColor=#000000;fontColor=#000000;strokeWidth=1;" vertex="1" parent="1">
          <mxGeometry x="880" y="300" width="120" height="40" as="geometry" />
        </mxCell>
        <mxCell id="zEhG4q7j8TwIvnxM43pW-62" value="" style="edgeStyle=orthogonalEdgeStyle;rounded=0;orthogonalLoop=1;jettySize=auto;html=1;dashed=1;" edge="1" parent="1" source="zEhG4q7j8TwIvnxM43pW-26" target="zEhG4q7j8TwIvnxM43pW-35">
          <mxGeometry relative="1" as="geometry" />
        </mxCell>
        <mxCell id="zEhG4q7j8TwIvnxM43pW-26" value="purchaseItem()" style="rounded=1;whiteSpace=wrap;html=1;fillColor=#f0a30a;strokeColor=#000000;fontColor=#000000;strokeWidth=1;" vertex="1" parent="1">
          <mxGeometry x="1020" y="300" width="120" height="40" as="geometry" />
        </mxCell>
        <mxCell id="zEhG4q7j8TwIvnxM43pW-27" value="&lt;b&gt;Actions&lt;/b&gt;" style="text;html=1;strokeColor=none;fillColor=none;align=center;verticalAlign=middle;whiteSpace=wrap;rounded=0;shadow=0;" vertex="1" parent="1">
          <mxGeometry x="552" y="270" width="65" height="30" as="geometry" />
        </mxCell>
        <mxCell id="zEhG4q7j8TwIvnxM43pW-28" value="Harvested" style="rounded=1;whiteSpace=wrap;html=1;fillColor=#fa6800;strokeColor=#000000;fontColor=#000000;strokeWidth=1;" vertex="1" parent="1">
          <mxGeometry x="40" y="420" width="120" height="40" as="geometry" />
        </mxCell>
        <mxCell id="zEhG4q7j8TwIvnxM43pW-29" value="Processed" style="rounded=1;whiteSpace=wrap;html=1;fillColor=#fa6800;strokeColor=#000000;fontColor=#000000;strokeWidth=1;" vertex="1" parent="1">
          <mxGeometry x="180" y="420" width="120" height="40" as="geometry" />
        </mxCell>
        <mxCell id="zEhG4q7j8TwIvnxM43pW-30" value="Packaged" style="rounded=1;whiteSpace=wrap;html=1;fillColor=#fa6800;strokeColor=#000000;fontColor=#000000;strokeWidth=1;" vertex="1" parent="1">
          <mxGeometry x="320" y="420" width="120" height="40" as="geometry" />
        </mxCell>
        <mxCell id="zEhG4q7j8TwIvnxM43pW-31" value="For Sale" style="rounded=1;whiteSpace=wrap;html=1;fillColor=#fa6800;strokeColor=#000000;fontColor=#000000;strokeWidth=1;" vertex="1" parent="1">
          <mxGeometry x="460" y="420" width="120" height="40" as="geometry" />
        </mxCell>
        <mxCell id="zEhG4q7j8TwIvnxM43pW-32" value="Sold" style="rounded=1;whiteSpace=wrap;html=1;fillColor=#fa6800;strokeColor=#000000;fontColor=#000000;strokeWidth=1;" vertex="1" parent="1">
          <mxGeometry x="600" y="420" width="120" height="40" as="geometry" />
        </mxCell>
        <mxCell id="zEhG4q7j8TwIvnxM43pW-33" value="Shipped" style="rounded=1;whiteSpace=wrap;html=1;fillColor=#fa6800;strokeColor=#000000;fontColor=#000000;strokeWidth=1;" vertex="1" parent="1">
          <mxGeometry x="740" y="420" width="120" height="40" as="geometry" />
        </mxCell>
        <mxCell id="zEhG4q7j8TwIvnxM43pW-34" value="Received" style="rounded=1;whiteSpace=wrap;html=1;fillColor=#fa6800;strokeColor=#000000;fontColor=#000000;strokeWidth=1;" vertex="1" parent="1">
          <mxGeometry x="880" y="420" width="120" height="40" as="geometry" />
        </mxCell>
        <mxCell id="zEhG4q7j8TwIvnxM43pW-35" value="Purchased" style="rounded=1;whiteSpace=wrap;html=1;fillColor=#fa6800;strokeColor=#000000;fontColor=#000000;strokeWidth=1;" vertex="1" parent="1">
          <mxGeometry x="1020" y="420" width="120" height="40" as="geometry" />
        </mxCell>
        <mxCell id="zEhG4q7j8TwIvnxM43pW-36" value="&lt;b&gt;Coffee&lt;/b&gt;" style="text;html=1;strokeColor=none;fillColor=none;align=center;verticalAlign=middle;whiteSpace=wrap;rounded=0;shadow=0;" vertex="1" parent="1">
          <mxGeometry x="552" y="390" width="65" height="30" as="geometry" />
        </mxCell>
      </root>
    </mxGraphModel>
  </diagram>
</mxfile>
